<svg width="29" height="11" viewBox="0 0 29 11" fill="none" xmlns="http://www.w3.org/2000/svg">
<path d="M4.81926 2.69823C5.11238 2.59935 5.42705 2.54776 5.75465 2.54776C7.18575 2.54776 8.37977 3.56235 8.65133 4.90797L10.6773 4.49526C10.2117 2.20813 8.18579 0.484192 5.75465 0.484192C5.19859 0.484192 4.66408 0.574473 4.16406 0.742138L4.81926 2.69823Z" fill="#747474"/>
<path d="M2.42646 9.24983L3.79721 7.70215C3.18512 7.16046 2.80148 6.37373 2.80148 5.49241C2.80148 4.61539 3.18512 3.82436 3.79721 3.28697L2.42646 1.74359C1.38762 2.6636 0.732422 4.00062 0.732422 5.49671C0.732422 6.9885 1.38762 8.32978 2.42646 9.24983Z" fill="#747474"/>
<path d="M8.64978 6.08655C8.37391 7.43217 7.1842 8.44246 5.7531 8.44246C5.4255 8.44246 5.11083 8.39087 4.8134 8.29199L4.1582 10.2481C4.65823 10.4157 5.19704 10.506 5.7531 10.506C8.18425 10.506 10.2102 8.78639 10.6757 6.49926L8.64978 6.08655Z" fill="#747474"/>
<path d="M17.4277 7.47032C17.0915 7.7971 16.6389 7.99481 16.1388 7.98621C15.794 7.98191 15.4751 7.87874 15.2078 7.70677L14.5353 8.77299C14.9965 9.06099 15.5353 9.23295 16.1216 9.24155C16.9708 9.25445 17.7466 8.91912 18.3114 8.37313L17.4277 7.47032ZM16.2122 3.12393C14.5224 3.09813 13.1258 4.44805 13.0999 6.1333C13.0913 6.76527 13.2723 7.35854 13.5956 7.84864L19.1476 5.47979C18.8373 4.15141 17.6476 3.14972 16.2122 3.12393H16.2122ZM14.3716 6.37401C14.3629 6.30522 14.3586 6.23213 14.3586 6.15905C14.3759 5.16596 15.1949 4.37062 16.1906 4.38782C16.7337 4.39642 17.2165 4.64147 17.5398 5.02839L14.3716 6.37401ZM20.8934 1.74817V7.65084L21.9194 8.07645L21.4322 9.24151L20.4149 8.8202C20.1865 8.72132 20.0313 8.57085 19.9149 8.39888C19.8028 8.22692 19.7166 7.98613 19.7166 7.66804V1.74817H20.8934ZM24.5962 4.4781C24.7773 4.41791 24.9669 4.38782 25.1695 4.38782C26.0445 4.38782 26.7688 5.00689 26.9369 5.82802L28.1739 5.57437C27.8894 4.17716 26.6524 3.12818 25.1695 3.12818C24.829 3.12818 24.5014 3.18407 24.1997 3.28295L24.5962 4.4781ZM23.1349 8.47197L23.9711 7.53046C23.5962 7.19943 23.3633 6.71793 23.3633 6.18055C23.3633 5.64316 23.6004 5.16166 23.9711 4.83493L23.1349 3.89342C22.5013 4.45231 22.1004 5.27343 22.1004 6.18484C22.1004 7.09626 22.5013 7.91308 23.1349 8.47197ZM26.9369 6.54593C26.7688 7.3671 26.0402 7.98613 25.1695 7.98613C24.9713 7.98613 24.7773 7.95173 24.5962 7.89159L24.1954 9.08674C24.5014 9.18988 24.829 9.24581 25.1695 9.24581C26.6524 9.24581 27.8895 8.19683 28.1739 6.79962L26.9369 6.54593Z" fill="#747474"/>
</svg>
