<svg width="31" height="14" viewBox="0 0 31 14" fill="none" xmlns="http://www.w3.org/2000/svg">
<path d="M13.1629 13.3308L0.751953 13.3353V13.3052C0.751953 13.2886 0.771748 13.1812 0.79594 13.0665C0.820132 12.9519 0.857745 12.7694 0.879522 12.6612C0.901297 12.5529 0.938531 12.3689 0.962261 12.2523C0.98599 12.1357 1.02542 11.9415 1.04988 11.8208C1.07433 11.7 1.11265 11.5092 1.13502 11.3968C1.15739 11.2843 1.19474 11.1004 1.21802 10.9879C1.24129 10.8755 1.28098 10.6813 1.30621 10.5564C1.33144 10.4314 1.36979 10.2406 1.39143 10.1324C1.41307 10.0241 1.44747 9.85715 1.46787 9.76137C1.48826 9.6656 1.51426 9.53613 1.52565 9.47366C1.53703 9.4112 1.57386 9.22722 1.6075 9.06481C1.64114 8.90241 1.67828 8.71843 1.69003 8.65597C1.70178 8.5935 1.73908 8.40952 1.77292 8.24712C1.80676 8.08471 1.84394 7.90073 1.85554 7.83827C1.86713 7.7758 1.90452 7.59182 1.93861 7.42942C1.9727 7.26701 2.0095 7.08644 2.02038 7.02814C2.03126 6.96984 2.06107 6.81993 2.08661 6.695C2.11215 6.57008 2.16049 6.33499 2.19402 6.17259C2.22755 6.01018 2.28491 5.7274 2.32147 5.54417C2.35804 5.36095 2.40174 5.14289 2.41858 5.05961C2.43542 4.97633 2.46587 4.82641 2.48625 4.72647C2.50663 4.62653 2.54364 4.44596 2.56849 4.32519C2.59334 4.20443 2.63377 4.00682 2.65834 3.88606C2.68291 3.7653 2.72077 3.57791 2.74247 3.46964C2.76418 3.36137 2.80122 3.1808 2.82479 3.06836C2.84836 2.95593 2.8889 2.75832 2.91488 2.62923C2.94086 2.50014 2.98439 2.30253 3.0116 2.19009C3.03881 2.07766 3.07729 1.94138 3.0971 1.88724C3.11691 1.83311 3.1716 1.71576 3.21864 1.62646L3.30415 1.46411L3.3819 1.36147C3.42466 1.30502 3.501 1.21581 3.55155 1.16323C3.6021 1.11065 3.68739 1.03154 3.74109 0.987419C3.79479 0.9433 3.87252 0.883759 3.91383 0.855105C3.95513 0.826451 4.03625 0.776287 4.09408 0.743628C4.15191 0.71097 4.23302 0.668203 4.27433 0.648591C4.31563 0.62898 4.40013 0.593187 4.46209 0.569052C4.52405 0.544916 4.64234 0.504461 4.72495 0.479152C4.80756 0.453842 4.96264 0.415692 5.06956 0.394375C5.17649 0.373058 5.34547 0.344585 5.44508 0.331103L5.6262 0.30659L18.0446 0.301824L30.4631 0.297058V0.327152C30.4631 0.343704 30.4431 0.451075 30.4188 0.565756C30.3944 0.680436 30.3537 0.876477 30.3284 1.0014C30.303 1.12633 30.2659 1.3069 30.246 1.40268C30.2261 1.49846 30.1885 1.68244 30.1623 1.81153C30.1362 1.94062 30.096 2.13823 30.0729 2.25066C30.0499 2.3631 30.0127 2.54708 29.9901 2.65951C29.9676 2.77195 29.9301 2.95593 29.9068 3.06836C29.8835 3.1808 29.8474 3.35796 29.8266 3.46207C29.8057 3.56617 29.768 3.75356 29.7427 3.87849C29.7174 4.00342 29.6768 4.20103 29.6525 4.31762C29.6282 4.43422 29.5911 4.6148 29.5701 4.7189C29.5491 4.82301 29.5113 5.0104 29.4862 5.13532C29.461 5.26025 29.4205 5.45786 29.3961 5.57446C29.3718 5.69105 29.3355 5.86822 29.3155 5.96816C29.2955 6.0681 29.2579 6.25549 29.2319 6.38458C29.2059 6.51367 29.168 6.70106 29.1477 6.801C29.1274 6.90094 29.0911 7.07811 29.0671 7.19471C29.043 7.31131 29.002 7.51232 28.9758 7.64141C28.9496 7.7705 28.9121 7.95449 28.8925 8.05026C28.8729 8.14604 28.8361 8.32662 28.8109 8.45154C28.7856 8.57647 28.7454 8.77408 28.7215 8.89068C28.6977 9.00727 28.6602 9.19126 28.6383 9.29952C28.6165 9.40779 28.5784 9.59518 28.5538 9.71594C28.5292 9.83671 28.489 10.0343 28.4645 10.1551C28.44 10.2758 28.4032 10.4564 28.3828 10.5564C28.3624 10.6563 28.3252 10.8403 28.3 10.9652C28.2748 11.0901 28.2339 11.287 28.209 11.4027L28.1638 11.613L28.1099 11.7585C28.0803 11.8386 28.0357 11.9449 28.0109 11.9949C27.9861 12.0449 27.9355 12.133 27.8986 12.1908C27.8616 12.2486 27.8101 12.3226 27.7841 12.3554C27.7581 12.3881 27.6798 12.4725 27.6101 12.543L27.4834 12.6712L27.3615 12.7585C27.2945 12.8066 27.2223 12.8554 27.201 12.8671C27.1798 12.8788 27.099 12.9203 27.0215 12.9595C26.944 12.9986 26.8345 13.0484 26.7782 13.0701C26.7219 13.0919 26.6104 13.1289 26.5304 13.1524C26.4504 13.1758 26.3646 13.199 26.3399 13.2038C26.3151 13.2085 26.229 13.2265 26.1487 13.2436C26.0683 13.2608 25.9061 13.2864 25.7882 13.3006L25.5738 13.3263L13.1629 13.3308ZM8.74728 10.0945H9.07025L9.07937 10.0706C9.08438 10.0574 9.08849 10.0264 9.08849 10.0017C9.08849 9.97705 9.09913 9.88732 9.11214 9.80233C9.12516 9.71734 9.15569 9.52174 9.18 9.36767C9.20431 9.21359 9.24071 8.98191 9.26089 8.85282C9.28107 8.72373 9.3057 8.55849 9.31562 8.48561C9.32554 8.41274 9.33765 8.35312 9.34253 8.35312C9.34741 8.35312 9.36829 8.38531 9.38893 8.42467L9.42645 8.49623L9.50972 8.58081L9.59299 8.66539L9.69549 8.70675L9.79799 8.74812L9.92015 8.76408L10.0423 8.78004L10.1974 8.77045L10.3524 8.76086L10.5203 8.71706L10.6882 8.67326L10.7783 8.63179C10.8279 8.60898 10.9158 8.55925 10.9736 8.52128L11.0787 8.45224L11.1768 8.35346C11.2307 8.29914 11.3067 8.21202 11.3458 8.15988C11.3848 8.10773 11.4167 8.06126 11.4167 8.05661C11.4167 8.05196 11.4359 8.01966 11.4593 7.98485C11.4827 7.95004 11.5307 7.85341 11.5659 7.77013C11.6011 7.68684 11.656 7.53693 11.6881 7.43699L11.7463 7.25528L11.7764 7.09788C11.7929 7.01131 11.8142 6.86821 11.8237 6.77989L11.8409 6.61929L11.8309 6.48301L11.821 6.34673L11.7897 6.21044L11.7583 6.07416L11.7076 5.97212L11.6568 5.87009L11.5588 5.76535L11.4608 5.66062L11.3449 5.60021L11.2289 5.53979L11.1013 5.50898L10.9736 5.47816L10.8459 5.46871L10.7182 5.45926L10.576 5.47574L10.4338 5.49222L10.3177 5.5221L10.2016 5.55198L10.1008 5.59903C10.0453 5.62491 9.9646 5.66887 9.92142 5.69671C9.87825 5.72456 9.83371 5.75659 9.82245 5.7679C9.81119 5.77921 9.78423 5.80017 9.76254 5.81446L9.72311 5.84046L9.75068 5.70746C9.76585 5.63431 9.77852 5.56594 9.77885 5.55553L9.77944 5.5366H9.50406H9.22868L9.18039 5.84324C9.15383 6.01189 9.1119 6.27253 9.0872 6.42244C9.06251 6.57235 9.02527 6.79722 9.00445 6.92214C8.98364 7.04707 8.9465 7.26853 8.92194 7.41428C8.89737 7.56002 8.85676 7.7917 8.8317 7.92912C8.80664 8.06654 8.76992 8.26756 8.75011 8.37583C8.73029 8.4841 8.69301 8.68852 8.66724 8.8301C8.64148 8.97169 8.60007 9.19656 8.57523 9.32981C8.55039 9.46306 8.50997 9.6743 8.4854 9.79923C8.46084 9.92416 8.43704 10.0417 8.43253 10.0604L8.42431 10.0945H8.74728ZM10.1377 8.34375L10.0123 8.35135L9.93029 8.33676L9.84832 8.32217L9.76506 8.28385L9.68181 8.24553L9.62364 8.18954L9.56548 8.13355L9.5319 8.05784C9.51344 8.01619 9.48972 7.94545 9.4792 7.90064L9.46006 7.81915L9.46773 7.68864L9.4754 7.55813L9.5141 7.35371C9.53539 7.24127 9.57361 7.03003 9.59903 6.88429C9.62446 6.73854 9.66296 6.52499 9.68459 6.40973L9.72391 6.20016L9.81002 6.12792C9.85737 6.08819 9.93239 6.03494 9.97672 6.00959L10.0573 5.96349L10.1625 5.93068L10.2676 5.89787L10.4028 5.88987L10.538 5.88187L10.6481 5.90552L10.7581 5.92917L10.8358 5.96524L10.9135 6.0013L10.9787 6.06733L11.0438 6.13335L11.0789 6.20326C11.0983 6.24171 11.1254 6.31698 11.1393 6.37052L11.1645 6.46787L11.1567 6.75558L11.149 7.04328L11.1104 7.21334C11.0892 7.30687 11.0488 7.44997 11.0207 7.53133L10.9695 7.67927L10.9068 7.79902C10.8724 7.86489 10.8192 7.9539 10.7887 7.99682C10.7582 8.03974 10.7096 8.09534 10.6807 8.12037C10.6518 8.1454 10.6034 8.18452 10.5731 8.20731L10.518 8.24873L10.3906 8.29244L10.2631 8.33615L10.1377 8.34375ZM13.2568 8.76003L13.422 8.76194L13.5872 8.74675C13.6781 8.73839 13.8268 8.72099 13.9177 8.70809C14.0085 8.69518 14.1655 8.6663 14.2665 8.64389L14.4502 8.60316L14.4593 8.53492C14.4643 8.49739 14.485 8.38566 14.5051 8.28663L14.5418 8.10658L14.5337 8.09842L14.5256 8.09026L14.4695 8.11759C14.4386 8.13263 14.3424 8.16848 14.2558 8.19728L14.0982 8.24963L13.9328 8.28193L13.7675 8.31422L13.5046 8.31474L13.2417 8.31525L13.1516 8.28623C13.102 8.27028 13.0291 8.24108 12.9896 8.22135L12.9177 8.18548L12.8584 8.13144L12.799 8.0774L12.7528 7.99584L12.7065 7.91427L12.6774 7.81196L12.6484 7.70965L12.6482 7.52031L12.648 7.33098L12.6738 7.16208L12.6995 6.99318L12.9256 6.98253L13.1516 6.97189L13.9872 6.9773L14.8227 6.98271L14.8479 6.87482C14.8618 6.81548 14.883 6.69283 14.8951 6.60225L14.917 6.43757L14.9175 6.29905L14.9179 6.16052L14.8941 6.0571L14.8703 5.95369L14.831 5.88521C14.8094 5.84755 14.7712 5.79296 14.7463 5.76391C14.7213 5.73487 14.6768 5.69391 14.6473 5.6729C14.6177 5.6519 14.5598 5.61659 14.5185 5.59446L14.4434 5.5542L14.3122 5.52232L14.1809 5.49044L14.0193 5.47485L13.8576 5.45927L13.7074 5.46913L13.5572 5.47899L13.3769 5.51388L13.1967 5.54877L13.084 5.59418C13.0221 5.61916 12.9274 5.6647 12.8737 5.69539C12.82 5.72608 12.7457 5.77603 12.7085 5.8064C12.6713 5.83677 12.607 5.89581 12.5655 5.9376C12.524 5.97939 12.4626 6.05447 12.4291 6.10444C12.3955 6.15441 12.3441 6.24299 12.3149 6.30129C12.2856 6.35959 12.2474 6.44136 12.23 6.483C12.2127 6.52464 12.1811 6.60982 12.1599 6.67228C12.1388 6.73475 12.1054 6.85399 12.0859 6.93728C12.0664 7.02056 12.0396 7.15766 12.0265 7.24194L12.0025 7.39518L12.0027 7.62051L12.003 7.84584L12.0258 7.94427C12.0383 7.9984 12.0624 8.08017 12.0791 8.12598C12.0959 8.17178 12.127 8.23992 12.1481 8.2774C12.1693 8.31488 12.2145 8.37522 12.2485 8.4115C12.2826 8.44777 12.3442 8.50281 12.3855 8.53381C12.4269 8.56481 12.5004 8.60841 12.549 8.6307L12.6373 8.67122L12.7604 8.70123C12.8281 8.71774 12.9303 8.73729 12.9875 8.74469C13.0447 8.75208 13.1659 8.75899 13.2568 8.76003ZM13.5397 6.62686C13.1238 6.62686 12.7836 6.62386 12.7836 6.62019C12.7836 6.61653 12.8013 6.56372 12.823 6.50284C12.8447 6.44196 12.8828 6.35135 12.9077 6.30148L12.9529 6.21081L13.0522 6.11118L13.1516 6.01155L13.2492 5.96449C13.3029 5.9386 13.3739 5.91042 13.407 5.90185C13.44 5.89329 13.5346 5.88193 13.6173 5.87661L13.7675 5.86693L13.8828 5.88188L13.9982 5.89682L14.082 5.93551L14.1658 5.9742L14.2118 6.02418C14.2371 6.05167 14.2672 6.09215 14.2788 6.11414L14.2998 6.15412L14.3136 6.24285L14.3275 6.33158L14.3116 6.47922L14.2958 6.62686H13.5397ZM18.0335 8.76012L18.1988 8.76196L18.3864 8.73954C18.4897 8.72721 18.6271 8.70677 18.6918 8.69413C18.7565 8.68148 18.8613 8.65638 18.9246 8.63834C18.9879 8.62031 19.0452 8.60081 19.0519 8.59501C19.0586 8.58921 19.0765 8.52049 19.0917 8.44229C19.1069 8.36409 19.126 8.25923 19.1342 8.20926C19.1424 8.15929 19.1466 8.11573 19.1436 8.11246C19.1406 8.10919 19.1295 8.11342 19.119 8.12184C19.1084 8.13027 19.0347 8.16154 18.9552 8.19132L18.8106 8.24548L18.6046 8.28571L18.3986 8.32594L18.2235 8.31991L18.0484 8.31389L17.9489 8.27911L17.8494 8.24434L17.7726 8.17656L17.6957 8.10877L17.6447 8.01516L17.5938 7.92155L17.5695 7.79632L17.5452 7.67108L17.5453 7.50861L17.5455 7.34613L17.575 7.14928L17.6045 6.95243L17.6357 6.84643C17.6529 6.78813 17.6723 6.71999 17.6789 6.695C17.6855 6.67002 17.713 6.59847 17.7401 6.53601C17.7672 6.47355 17.8155 6.37701 17.8475 6.32147L17.9057 6.22051L17.9771 6.14592L18.0485 6.07133L18.1241 6.02405L18.1997 5.97676L18.2968 5.94661C18.3503 5.93002 18.4447 5.90849 18.5066 5.89875L18.6193 5.88106L18.7845 5.88942L18.9497 5.89777L19.145 5.93718L19.3403 5.97658L19.4197 6.00644C19.4634 6.02287 19.501 6.0363 19.5034 6.0363C19.5057 6.0363 19.5162 5.98009 19.5266 5.91138C19.5371 5.84267 19.5558 5.72962 19.5681 5.66017C19.5804 5.59072 19.5875 5.5309 19.5839 5.52725C19.5802 5.5236 19.5215 5.5142 19.4534 5.50637C19.3853 5.49854 19.2002 5.48463 19.042 5.47547L18.7545 5.45881L18.5517 5.47449L18.3489 5.49018L18.1987 5.522L18.0485 5.55383L17.9517 5.59283C17.8985 5.61428 17.8206 5.653 17.7786 5.67886C17.7365 5.70472 17.683 5.73951 17.6597 5.75617C17.6363 5.77282 17.5654 5.83781 17.5021 5.90058L17.3871 6.01472L17.3228 6.10956C17.2875 6.16173 17.2264 6.2705 17.1871 6.35128L17.1155 6.49815L17.0606 6.65715C17.0305 6.7446 16.9884 6.88769 16.9671 6.97514L16.9283 7.13414L16.9142 7.27799L16.9002 7.42185L16.9003 7.61113L16.9005 7.80041L16.9147 7.91052L16.9288 8.02064L16.9738 8.13391L17.0188 8.24718L17.0708 8.32907L17.1228 8.41096L17.2054 8.49294L17.288 8.57492L17.3754 8.62149L17.4628 8.66806L17.5777 8.70022C17.6408 8.7179 17.7321 8.7382 17.7804 8.74532C17.8288 8.75244 17.9428 8.7591 18.0337 8.76012H18.0335ZM20.5043 8.75452L20.7071 8.74867L20.8347 8.71572L20.9624 8.68278L21.045 8.6434C21.0905 8.62175 21.1648 8.579 21.2103 8.54841C21.2557 8.51782 21.326 8.45966 21.3665 8.41916C21.4071 8.37867 21.4672 8.30959 21.5001 8.26564C21.533 8.2217 21.5619 8.18774 21.5644 8.19019C21.5668 8.19263 21.5592 8.26266 21.5475 8.3458C21.5358 8.42894 21.5261 8.53956 21.526 8.59161L21.5257 8.68625H21.8014H22.0771L22.0855 8.47047L22.0939 8.25469L22.1332 7.97455C22.1549 7.82048 22.1898 7.5922 22.2109 7.46728C22.232 7.34235 22.2686 7.13111 22.2923 6.99786C22.316 6.8646 22.3535 6.65677 22.3757 6.53601L22.4161 6.31644L22.4174 6.12678L22.4188 5.93713L22.3762 5.84947L22.3337 5.76182L22.276 5.70599L22.2183 5.65017L22.1236 5.60179L22.0289 5.55341L21.8878 5.52176L21.7466 5.49011L21.5523 5.4752L21.3579 5.46029L21.1076 5.4759C20.9699 5.48449 20.7762 5.50145 20.677 5.51359L20.4968 5.53565L20.3739 5.53612L20.2511 5.53659L20.2332 5.62366C20.2234 5.67155 20.1961 5.78533 20.1725 5.8765C20.149 5.96767 20.1319 6.04446 20.1345 6.04715C20.1372 6.04984 20.2029 6.03481 20.2805 6.01375C20.3582 5.99268 20.5231 5.95804 20.647 5.93677L20.8723 5.89809L21.0751 5.88966L21.2779 5.88124L21.4085 5.90432L21.5391 5.9274L21.6263 5.97078L21.7135 6.01416L21.7623 6.08751L21.8111 6.16086L21.8104 6.2765L21.8097 6.39215L21.7838 6.51905L21.758 6.64596L21.2175 6.64792L20.677 6.64989L20.5001 6.69878C20.4029 6.72567 20.2951 6.76138 20.2607 6.77812C20.2264 6.79487 20.192 6.80857 20.1843 6.80857C20.1767 6.80857 20.1188 6.84092 20.0557 6.88046L19.941 6.95236L19.8507 7.04325C19.801 7.09323 19.7375 7.1682 19.7096 7.20985C19.6817 7.25149 19.6364 7.33848 19.6089 7.40316L19.5589 7.52076L19.536 7.65301L19.513 7.78526V7.924V8.06274L19.5349 8.17825L19.5569 8.29376L19.5975 8.3691C19.6199 8.41053 19.661 8.47123 19.6888 8.50398L19.7393 8.56352L19.8292 8.61854L19.919 8.67356L20.0218 8.7029C20.0784 8.71903 20.1645 8.73857 20.2131 8.7463L20.3016 8.76037L20.5044 8.75452L20.5043 8.75452ZM20.692 8.3311L20.5719 8.33742L20.4923 8.31698C20.4485 8.30574 20.3821 8.28068 20.3447 8.26129L20.2767 8.22602L20.2395 8.18155C20.2191 8.15709 20.1879 8.10902 20.1702 8.07474L20.1381 8.01241L20.1317 7.86684L20.1254 7.72128L20.1509 7.63298C20.1649 7.58442 20.1978 7.50015 20.2239 7.44572L20.2715 7.34675L20.3625 7.25559L20.4536 7.16442L20.5503 7.11749L20.647 7.07055L20.7671 7.04177L20.8873 7.013H21.2628H21.6383L21.6621 7.0229L21.6859 7.0328L21.6659 7.15161C21.6549 7.21696 21.6286 7.33516 21.6076 7.41428C21.5865 7.4934 21.5493 7.6097 21.525 7.67274C21.5006 7.73577 21.4806 7.7915 21.4806 7.79658C21.4806 7.80166 21.4559 7.84759 21.4258 7.89864L21.3709 7.99148L21.2808 8.08144C21.2313 8.13092 21.1853 8.1714 21.1786 8.1714C21.172 8.1714 21.1416 8.18845 21.1112 8.20928L21.0558 8.24715L20.934 8.28597L20.8122 8.32478L20.692 8.3311ZM25.5813 8.75994L25.724 8.76175L25.8592 8.73963C25.9335 8.72746 26.0282 8.70787 26.0695 8.69608C26.1108 8.68429 26.1851 8.6537 26.2347 8.6281L26.3248 8.58155L26.4024 8.51276L26.4799 8.44396L26.5616 8.33418C26.6065 8.2738 26.6471 8.21418 26.6519 8.20169L26.6606 8.17898L26.6531 8.25469C26.6489 8.29633 26.6395 8.36447 26.6323 8.40611C26.625 8.44776 26.6146 8.52782 26.6091 8.58404L26.5992 8.68625H26.8939H27.1885V8.58404V8.48183L27.2334 8.09569C27.2581 7.88332 27.2946 7.60053 27.3146 7.46728C27.3345 7.33402 27.3653 7.14322 27.3829 7.04328C27.4006 6.94334 27.4319 6.76277 27.4525 6.64201C27.4731 6.52124 27.5102 6.31001 27.5351 6.17259C27.5599 6.03517 27.5997 5.81712 27.6235 5.68802C27.6473 5.55893 27.6842 5.35792 27.7056 5.24132C27.7269 5.12472 27.7652 4.9203 27.7907 4.78704C27.8161 4.65379 27.8533 4.4664 27.8732 4.37062C27.8932 4.27485 27.9095 4.19137 27.9095 4.18513V4.17377H27.588H27.2666L27.2571 4.26841C27.2518 4.32046 27.2272 4.49252 27.2024 4.65076C27.1775 4.809 27.137 5.06112 27.1123 5.21103C27.0877 5.36095 27.0639 5.50632 27.0595 5.53408L27.0515 5.58456L27.0261 5.57368C27.0122 5.5677 26.9365 5.54655 26.858 5.52668L26.7153 5.49056L26.5201 5.47523L26.3248 5.4599L26.1596 5.47542L25.9943 5.49094L25.8441 5.52922L25.6939 5.56749L25.5512 5.63766L25.4085 5.70782L25.3034 5.7863L25.1982 5.86477L25.1074 5.96292C25.0575 6.0169 24.9854 6.10619 24.9471 6.16133L24.8776 6.2616L24.7959 6.43288C24.751 6.52708 24.6964 6.65185 24.6745 6.71015C24.6526 6.76845 24.614 6.89768 24.5887 6.99733L24.5427 7.17851L24.5201 7.41375L24.4974 7.64899L24.5145 7.83827L24.5315 8.02755L24.5516 8.09569C24.5626 8.13317 24.586 8.19994 24.6034 8.24408L24.6351 8.32432L24.6929 8.40323L24.7508 8.48214L24.8168 8.53665L24.8828 8.59117L24.9729 8.63629C25.0225 8.6611 25.1057 8.69316 25.1577 8.70754C25.2098 8.72192 25.2943 8.73918 25.3455 8.7459C25.3967 8.75262 25.5028 8.75894 25.5813 8.75994H25.5813ZM25.8374 8.33031L25.724 8.33639L25.6475 8.3225C25.6053 8.31486 25.538 8.29438 25.4977 8.27699L25.4246 8.24537L25.363 8.19451L25.3014 8.14366L25.2557 8.05532L25.2099 7.96698L25.1891 7.86855L25.1682 7.77013L25.17 7.57327L25.1718 7.37642L25.196 7.20228L25.2202 7.02814L25.2578 6.907C25.2785 6.84037 25.2956 6.77751 25.2957 6.76731C25.2958 6.75711 25.3162 6.7026 25.3411 6.64617C25.366 6.58974 25.4075 6.50269 25.4334 6.45272C25.4593 6.40275 25.5077 6.32485 25.5409 6.27961C25.5742 6.23437 25.6335 6.16623 25.6726 6.12819C25.7118 6.09014 25.7741 6.04025 25.8111 6.0173L25.8783 5.97559L25.9964 5.93439L26.1145 5.89319L26.3624 5.89304H26.6102L26.7529 5.93295C26.8314 5.95489 26.9147 5.98035 26.9381 5.98951L26.9806 6.00617L26.9723 6.04774C26.9677 6.0706 26.9499 6.17107 26.9326 6.27101C26.9154 6.37095 26.8814 6.56175 26.8571 6.695C26.8328 6.82826 26.7954 7.02928 26.7741 7.14171C26.7527 7.25414 26.7218 7.39724 26.7054 7.4597C26.689 7.52217 26.6658 7.60868 26.6539 7.65196C26.642 7.69524 26.6136 7.7702 26.5909 7.81853C26.5681 7.86686 26.5284 7.93707 26.5025 7.97455C26.4766 8.01203 26.4328 8.06394 26.4051 8.08992C26.3775 8.11589 26.3177 8.16205 26.2723 8.1925L26.1896 8.24785L26.0702 8.28604L25.9508 8.32424L25.8374 8.33032V8.33031ZM3.73053 8.68625H4.0955L4.12169 8.52347C4.13609 8.43394 4.16421 8.26188 4.18419 8.14112C4.20417 8.02036 4.24135 7.79549 4.26681 7.64141C4.29228 7.48734 4.33045 7.25907 4.35165 7.13414C4.37284 7.00921 4.40651 6.81542 4.42647 6.70349C4.44643 6.59157 4.46655 6.49617 4.47119 6.4915L4.4796 6.48301H5.46096H6.44232L6.45322 6.49399L6.46411 6.50497L6.4471 6.59242C6.43774 6.64051 6.41005 6.78889 6.38558 6.92214C6.3611 7.0554 6.31995 7.28026 6.29413 7.42185C6.26832 7.56343 6.23099 7.76445 6.21118 7.86855C6.19137 7.97266 6.15128 8.19071 6.1221 8.35312C6.09291 8.51552 6.0691 8.65691 6.06917 8.66732L6.06932 8.68625H6.43579H6.80226L6.81847 8.59161C6.82739 8.53956 6.84174 8.44586 6.85036 8.3834C6.85898 8.32094 6.87976 8.18806 6.89654 8.08812C6.91331 7.98818 6.94684 7.79057 6.97103 7.64899C6.99522 7.5074 7.03572 7.2655 7.06102 7.11143C7.08632 6.95735 7.12385 6.73248 7.14442 6.61172C7.165 6.49096 7.20166 6.28653 7.22589 6.15744C7.25012 6.02835 7.29048 5.8103 7.31558 5.67288C7.34068 5.53546 7.37829 5.32763 7.39915 5.21103C7.42001 5.09444 7.45804 4.8832 7.48367 4.74162C7.50929 4.60003 7.54165 4.43479 7.55558 4.37441L7.58089 4.26462H7.20984H6.83879L6.8287 4.33655C6.82315 4.37611 6.80522 4.48684 6.78887 4.58262C6.77251 4.6784 6.74275 4.84875 6.72274 4.96118C6.70273 5.07362 6.66616 5.28826 6.64148 5.43817C6.61679 5.58808 6.58534 5.78653 6.57157 5.87917L6.54655 6.04759L6.00186 6.05871L5.45717 6.06982L5.00094 6.0589C4.75001 6.0529 4.54332 6.0468 4.54162 6.04534C4.53992 6.04389 4.54847 5.98504 4.56061 5.91457C4.57276 5.84411 4.59574 5.72172 4.61167 5.6426C4.62761 5.56348 4.65783 5.40675 4.67882 5.29432C4.69981 5.18189 4.72358 5.04219 4.73165 4.9839C4.73972 4.9256 4.75663 4.8285 4.76923 4.76811C4.78183 4.70773 4.80575 4.58055 4.82237 4.48548C4.839 4.39041 4.85671 4.30183 4.86174 4.28863L4.87087 4.26462H4.50282H4.13476L4.11119 4.39712C4.09822 4.47 4.08093 4.57391 4.07277 4.62805C4.0646 4.68218 4.03719 4.85594 4.01185 5.01418C3.98651 5.17242 3.94909 5.40751 3.92871 5.5366C3.90833 5.66569 3.87121 5.90078 3.84623 6.05902C3.82124 6.21726 3.78002 6.46257 3.75462 6.60415C3.72922 6.74573 3.69244 6.94675 3.6729 7.05086C3.65335 7.15496 3.6161 7.35257 3.59012 7.48999C3.56415 7.62741 3.52624 7.82161 3.5059 7.92155C3.48556 8.02149 3.46307 8.13733 3.45592 8.17898C3.44878 8.22062 3.42553 8.34072 3.40426 8.44587C3.38299 8.55102 3.36558 8.64813 3.36558 8.66165V8.68625H3.73055H3.73053ZM7.77081 8.68625H8.0939L8.10302 8.6623C8.10803 8.64913 8.11214 8.61457 8.11214 8.58551C8.11214 8.55645 8.13245 8.40539 8.15728 8.24982C8.18212 8.09426 8.22314 7.84092 8.24846 7.68684C8.27377 7.53277 8.31116 7.3079 8.33154 7.18714C8.35192 7.06638 8.38816 6.86536 8.41207 6.74043C8.43599 6.61551 8.4727 6.4213 8.49366 6.30887C8.51462 6.19644 8.55583 5.98253 8.58524 5.83352C8.61465 5.68451 8.64239 5.55661 8.64687 5.5493L8.65502 5.536L8.32829 5.54009L8.00156 5.54417L7.97435 5.74102C7.95938 5.84929 7.92666 6.06394 7.90164 6.21801C7.87661 6.37209 7.83876 6.60718 7.81752 6.74043C7.79628 6.87369 7.75924 7.08833 7.7352 7.21742C7.71117 7.34651 7.67434 7.54412 7.65336 7.65656C7.63238 7.76899 7.59474 7.9666 7.5697 8.09569C7.54467 8.22478 7.51108 8.39513 7.49506 8.47426C7.47904 8.55338 7.46183 8.63344 7.45682 8.65218L7.44772 8.68625H7.77081ZM15.3274 8.68625H15.6481L15.6577 8.54945C15.663 8.47422 15.6811 8.3226 15.698 8.21253C15.7149 8.10246 15.7495 7.88294 15.7749 7.7247C15.8002 7.56646 15.8474 7.30307 15.8796 7.1394C15.9119 6.97572 15.9483 6.81303 15.9606 6.77786C15.973 6.74269 15.983 6.70458 15.983 6.69317C15.983 6.68175 16.0071 6.61958 16.0366 6.555C16.0661 6.49042 16.121 6.39153 16.1587 6.33525L16.2271 6.23291L16.3188 6.14738L16.4104 6.06184L16.5234 6.00743L16.6364 5.95302L16.8092 5.95393L16.9819 5.95484L17.0668 5.98042C17.1135 5.9945 17.1558 6.00601 17.1607 6.00601C17.1656 6.00601 17.1697 5.98991 17.1697 5.97023C17.1697 5.95056 17.1866 5.85082 17.2072 5.74858C17.2279 5.64635 17.2448 5.5584 17.2448 5.55313C17.2448 5.54785 17.1958 5.52852 17.1359 5.51016C17.076 5.4918 16.9932 5.47257 16.9519 5.46743L16.8768 5.45807L16.7791 5.47548C16.7254 5.48506 16.6456 5.5062 16.6017 5.52246C16.5578 5.53872 16.4853 5.57559 16.4406 5.60441C16.396 5.63323 16.3265 5.68938 16.2862 5.72919C16.2459 5.76901 16.1782 5.84928 16.1357 5.90758C16.0932 5.96588 16.0487 6.02721 16.0369 6.04386L16.0154 6.07415L16.0284 6.01358C16.0356 5.98027 16.0556 5.87124 16.0729 5.7713C16.0901 5.67136 16.1079 5.57766 16.1122 5.56309L16.1202 5.53659H15.8338H15.5474V5.57309C15.5474 5.59317 15.5305 5.71412 15.5099 5.84187C15.4892 5.96962 15.4551 6.18318 15.4341 6.31643C15.4132 6.44969 15.3759 6.68137 15.3514 6.83128C15.3269 6.98119 15.2896 7.19583 15.2686 7.30827C15.2476 7.4207 15.2104 7.61831 15.1858 7.7474C15.1612 7.87649 15.1205 8.08773 15.0952 8.21682C15.0699 8.34591 15.0396 8.49836 15.0279 8.5556C15.0162 8.61284 15.0067 8.66565 15.0067 8.67296V8.68624H15.3274V8.68625ZM22.9402 8.68625H23.2681V8.58509V8.48392L23.3059 8.23302C23.3267 8.09503 23.361 7.8765 23.3821 7.74741C23.4032 7.61832 23.4295 7.45478 23.4406 7.38399C23.4517 7.3132 23.481 7.15988 23.5057 7.04328C23.5305 6.92669 23.5614 6.80062 23.5744 6.76315C23.5875 6.72567 23.5982 6.68635 23.5983 6.67577C23.5985 6.66519 23.6264 6.59715 23.6605 6.52457L23.7224 6.39261L23.804 6.28323L23.8857 6.17386L23.975 6.10613C24.0242 6.06888 24.1032 6.01945 24.1507 5.99628L24.2369 5.95416L24.4247 5.95547L24.6125 5.95677L24.6864 5.9807L24.7603 6.00462L24.7727 5.99686L24.7852 5.9891L24.7858 5.94078C24.7862 5.9142 24.8023 5.81532 24.8216 5.72103L24.8567 5.54961L24.8172 5.53402C24.7955 5.52545 24.7439 5.50771 24.7026 5.4946L24.6275 5.47076L24.4923 5.47111L24.3571 5.47145L24.2469 5.51053L24.1368 5.5496L24.054 5.59989L23.9713 5.65017L23.8638 5.76374L23.7562 5.87731L23.6984 5.96541C23.6667 6.01387 23.6387 6.05134 23.6363 6.0487C23.6339 6.04605 23.6511 5.94507 23.6747 5.82431C23.6982 5.70355 23.7177 5.58941 23.7181 5.57067L23.7187 5.53661H23.4408H23.163V5.54625C23.163 5.55156 23.1491 5.64866 23.1322 5.76204C23.1152 5.87541 23.0812 6.09423 23.0566 6.24831C23.032 6.40238 22.9916 6.6511 22.9669 6.80101C22.9421 6.95092 22.9048 7.16557 22.8839 7.278C22.8631 7.39043 22.826 7.58804 22.8016 7.71713C22.7772 7.84622 22.7371 8.05405 22.7125 8.17898C22.6878 8.30391 22.6552 8.46915 22.64 8.54619L22.6123 8.68626H22.9402L22.9402 8.68625ZM8.40612 4.99113L8.49732 4.99147L8.56982 4.96657L8.64231 4.94166L8.70648 4.87605L8.77064 4.81044L8.80443 4.72303L8.83823 4.63562L8.83944 4.50691L8.84064 4.37819L8.8106 4.32793L8.78056 4.27768L8.72826 4.24503L8.67596 4.21238H8.56303L8.4501 4.21238L8.37322 4.24708L8.29634 4.28178L8.25172 4.32999L8.20709 4.37819L8.17204 4.46148L8.13699 4.54476L8.13037 4.67449L8.12374 4.80422L8.15637 4.8687L8.189 4.93317L8.25196 4.96199L8.31492 4.9908L8.40612 4.99114V4.99113Z" fill="#747474"/>
</svg>
